<svg width="32" height="32" viewBox="0 0 32 32" fill="none" xmlns="http://www.w3.org/2000/svg">
<path d="M27 14V8" stroke="black" stroke-width="2" stroke-linecap="round" stroke-linejoin="round"/>
<path d="M30 11H24" stroke="black" stroke-width="2" stroke-linecap="round" stroke-linejoin="round"/>
<path d="M21 3V7" stroke="black" stroke-width="2" stroke-linecap="round" stroke-linejoin="round"/>
<path d="M23 5H19" stroke="black" stroke-width="2" stroke-linecap="round" stroke-linejoin="round"/>
<path d="M27.0874 19.0751C25.1241 19.6257 23.0496 19.6437 21.077 19.1274C19.1043 18.611 17.3047 17.579 15.8629 16.1371C14.421 14.6953 13.389 12.8957 12.8726 10.923C12.3563 8.95043 12.3744 6.87593 12.9249 4.9126C10.9892 5.45136 9.2285 6.48787 7.81809 7.91889C6.40767 9.3499 5.39679 11.1255 4.88614 13.0688C4.3755 15.012 4.3829 17.0552 4.90762 18.9947C5.43234 20.9342 6.45606 22.7024 7.87682 24.1232C9.29757 25.5439 11.0658 26.5677 13.0053 27.0924C14.9448 27.6171 16.988 27.6245 18.9312 27.1139C20.8745 26.6032 22.6501 25.5923 24.0811 24.1819C25.5121 22.7715 26.5486 21.0108 27.0874 19.0751V19.0751Z" stroke="black" stroke-width="2" stroke-linecap="round" stroke-linejoin="round"/>
</svg>
